<svg xmlns="http://www.w3.org/2000/svg" viewBox="0 0 256 256">
    <g transform="scale(12.2) translate(-1.5, -1)">
        <path fill="firebrick"
            d="M17.6177 5.9681L19.0711 4.51472L20.4853 5.92893L19.0319 7.38231C20.2635 8.92199 21 10.875 21 13C21 17.9706 16.9706 22 12 22C7.02944 22 3 17.9706 3 13C3 8.02944 7.02944 4 12 4C14.125 4 16.078 4.73647 17.6177 5.9681ZM11 1H16V3H8V1Z">
        </path>
        <g transform="scale(0.7) translate(5.2, 6.7)">
            <path fill="white"
                d="M6.26489 3.80698L7.41191 5.44558C5.34875 6.89247 4 9.28873 4 12C4 16.4183 7.58172 20 12 20C16.4183 20 20 16.4183 20 12C20 9.28873 18.6512 6.89247 16.5881 5.44558L17.7351 3.80698C20.3141 5.61559 22 8.61091 22 12C22 17.5228 17.5228 22 12 22C6.47715 22 2 17.5228 2 12C2 8.61091 3.68594 5.61559 6.26489 3.80698ZM11 12V2H13V12H11Z">
            </path>
        </g>
    </g>
</svg>